<?xml version="1.0" standalone="no"?><!DOCTYPE svg PUBLIC "-//W3C//DTD SVG 1.1//EN" "http://www.w3.org/Graphics/SVG/1.1/DTD/svg11.dtd"><svg t="1724745394544" class="icon" viewBox="0 0 1024 1024" version="1.1" xmlns="http://www.w3.org/2000/svg" p-id="12796" width="128" height="128" xmlns:xlink="http://www.w3.org/1999/xlink"><path d="M925.866667 278.613333c0.426667 0.853333 0.426667 2.133333 0.426666 3.413334v183.04c0 4.266667-2.56 9.386667-6.4 11.52l-154.026666 88.746666v175.36c0 4.693333-2.133333 8.96-6.4 11.52l-320.853334 184.746667c-0.853333 0.426667-1.706667 1.706667-2.56 1.706667H426.666667s0-1.28-1.706667-1.706667l-320.853333-184.746667a13.44 13.44 0 0 1-6.4-11.52V192c0-2.133333 0-3.413333 0.426666-4.266667 0-0.426667 0.426667-0.853333 0.426667-1.28 0-0.853333 0.426667-1.28 0.853333-2.133333 0-0.426667 0.426667-0.853333 0.853334-1.28l1.28-1.28 1.28-1.28c0.426667-0.426667 0.853333-0.853333 1.28-0.853333L264.533333 87.04c4.266667-1.706667 9.386667-1.706667 12.8 0l161.28 92.586667c0.426667 0.426667 0.853333 0.426667 1.28 0.853333l1.28 1.28 1.28 1.28c0.426667 0.426667 0.853333 0.853333 0.853334 1.28 0.426667 0.853333 0.853333 1.28 0.853333 2.133333 0 0.426667 0.426667 0.853333 0.426667 1.28 0.426667 1.28 0.426667 2.133333 0.426666 4.266667v341.333333l133.973334-75.946666V282.026667c0-1.28 0-2.56 0.426666-3.413334l0.426667-1.28s0.426667-1.28 0.853333-2.133333c0-0.426667 0.426667-0.853333 0.853334-1.28l1.28-1.28 1.28-1.28c0.426667-0.426667 0.853333-0.853333 1.28-0.853333l161.28-92.586667c3.413333-2.56 8.533333-2.56 12.8 0l160.426666 92.586667c0.426667 0 0.853333 0.426667 1.28 0.853333l1.28 1.28 1.28 1.28c0.426667 0.426667 0.426667 0.853333 0.853334 1.28 0.426667 0.853333 0.426667 2.133333 0.853333 2.133333s0.426667 0 0.426667 1.28m-26.026667 178.773334V305.066667l-133.973333 76.8v151.466666l133.973333-75.946666m-160.426667 275.626666V580.266667l-294.4 168.106666v154.026667l294.4-169.386667M124.16 213.333333v519.68l294.4 169.386667v-154.026667l-153.6-87.04H264.533333c-0.426667 0-0.853333 0-1.28-1.28-0.426667 0-0.853333-0.426667-1.28-0.853333l-1.28-1.28c-0.426667-0.426667-0.426667-0.853333-0.853333-1.28-0.426667-0.853333-0.426667-1.28-0.853333-1.706667 0-0.853333-0.426667-1.28-0.426667-1.706666-0.426667-0.426667-0.426667-1.28-0.426667-1.706667V290.986667L124.16 213.333333m147.2-98.986666L137.813333 192l133.546667 75.946667L405.333333 192 271.36 114.346667m147.2 435.2V213.333333L284.586667 290.986667v335.786666l133.973333-77.226666m334.08-344.746667L618.666667 282.026667l133.973333 76.8 133.546667-76.8-133.546667-77.226667m-13.226667 177.066667l-133.973333-76.8v152.32l133.973333 75.946666V381.866667M431.786667 725.333333L725.333333 557.226667l-133.12-76.8L298.666667 649.813333 431.786667 725.333333z" p-id="12797" fill="#409EFF"></path></svg>