<?xml version="1.0" standalone="no"?><!DOCTYPE svg PUBLIC "-//W3C//DTD SVG 1.1//EN" "http://www.w3.org/Graphics/SVG/1.1/DTD/svg11.dtd"><svg t="1724745465287" class="icon" viewBox="0 0 1024 1024" version="1.1" xmlns="http://www.w3.org/2000/svg" p-id="14279" width="128" height="128" xmlns:xlink="http://www.w3.org/1999/xlink"><path d="M462.096203 1007.149367c-4.536709-11.665823 12.962025-27.868354 47.959493-44.718987 11.017722-5.18481 21.387342-12.313924 22.683545-14.906329 2.592405-5.832911 73.235443-40.182278 82.30886-40.182279 3.888608 0 7.129114-2.592405 7.129114-5.832911s6.481013-8.425316 14.258228-11.017722c8.425316-2.592405 22.035443-9.073418 31.108861-15.55443 49.903797-33.701266 69.346835-45.367089 76.475949-45.367089 11.017722 0 132.212658-121.194937 147.118988-147.118987 7.129114-11.665823 14.258228-21.387342 16.850632-21.387342s5.832911-9.073418 8.425317-20.73924c11.665823-57.032911 17.498734-71.291139 27.220253-63.513924 5.18481 4.536709 9.073418 14.258228 9.073418 22.035443s2.592405 16.850633 6.481012 20.73924c12.962025 12.962025 32.405063 103.696203 32.405064 154.896203 0 42.126582-3.240506 58.329114-16.850633 87.493671-9.073418 19.443038-18.146835 36.941772-20.739241 38.886075s-9.721519 11.017722-16.202531 21.387342c-6.481013 9.721519-16.850633 17.498734-24.627848 17.498734-8.425316 0-14.906329 5.18481-16.850633 13.610127-1.944304 7.129114-20.091139 23.979747-40.182279 37.589873l-36.293671 24.627849-141.934177-2.592406c-96.567089-1.296203-145.174684-4.536709-151.655696-9.721519-7.129114-6.481013-10.36962-5.18481-14.906329 3.240507-8.425316 14.258228-43.422785 14.906329-49.255696 0.648101zM267.017722 966.967089c-11.665823-24.627848-20.739241-50.551899-20.739241-57.681013s-4.536709-16.850633-9.721519-21.387342c-14.906329-12.313924-11.665823-54.440506 6.481013-90.734177 9.073418-18.146835 19.443038-32.405063 22.683544-32.405063 3.888608 0 9.073418-6.481013 12.313924-14.258228 3.240506-8.425316 20.739241-22.683544 42.126582-33.053165 20.091139-10.36962 36.293671-20.739241 36.293671-23.979747 0-2.592405 10.36962-9.721519 22.683545-15.55443s23.979747-13.610127 25.92405-16.850633c1.944304-3.888608 14.258228-6.481013 25.924051-6.481013 15.55443 0 21.387342-2.592405 18.794936-8.425316-1.944304-5.18481 9.073418-14.258228 27.868355-23.979747 44.718987-22.035443 123.787342-70.643038 147.118987-90.086076 31.108861-25.924051 107.58481-104.992405 107.58481-110.825316 0-3.240506 8.425316-18.794937 19.443038-34.349367 11.665823-17.498734 19.443038-38.237975 20.09114-50.551899 0-12.313924 2.592405-27.868354 5.832911-34.997468l5.18481-12.962026 4.536709 12.962026c2.592405 7.129114 12.962025 33.701266 22.683544 59.625316 25.924051 64.810127 35.64557 134.156962 25.924051 182.116456-4.536709 20.091139-11.017722 40.182278-15.55443 43.422785-4.536709 3.888608-11.017722 15.55443-14.90633 26.572151-7.777215 22.683544-64.810127 87.493671-75.827848 86.197469-19.443038-2.592405-31.108861 1.296203-27.868354 9.073418 1.944304 5.18481-18.146835 20.739241-56.38481 42.774683-32.405063 19.443038-74.531646 44.718987-92.678481 56.38481-18.794937 12.313924-35.64557 22.035443-37.589874 22.035443-3.888608 0-7.777215 2.592405-42.126582 31.756962-12.313924 10.36962-34.997468 25.275949-50.551899 33.053165-14.906329 7.777215-27.220253 18.146835-27.220253 23.331645 0 4.536709-14.906329 27.868354-33.701266 51.2-28.516456 35.64557-36.941772 42.126582-53.792405 42.126583-18.146835 0-21.387342-3.888608-40.830379-44.070886zM103.048101 817.255696c-4.536709-14.258228-9.721519-26.572152-12.313924-26.572152-3.888608 0-22.035443-41.478481-45.367088-103.696202-14.258228-38.886076-15.55443-76.475949-3.240507-103.696203 6.481013-14.258228 15.55443-26.572152 20.09114-28.516455 5.18481-1.944304 9.073418-7.129114 9.073417-11.665823 0-13.610127 61.56962-57.681013 152.303798-108.881013 46.663291-25.924051 100.455696-57.032911 120.546835-69.346835 20.091139-11.665823 38.237975-21.387342 40.182279-21.387342 5.18481 0 43.422785-33.701266 92.030379-81.012658 53.144304-51.848101 84.901266-100.455696 95.270886-146.470886 3.888608-17.498734 10.36962-31.108861 14.258228-29.812659s11.665823 14.906329 16.850633 31.108861c5.832911 15.55443 12.962025 34.349367 16.850633 41.478481s11.017722 37.589873 15.554431 67.402532c7.129114 44.718987 6.481013 62.217722-0.648102 99.807595-5.18481 27.220253-12.962025 49.903797-20.091139 55.736709-6.481013 5.18481-11.665823 14.906329-11.665823 20.73924 0 9.073418-49.903797 57.032911-65.458228 62.865823-3.240506 1.296203-5.832911 5.832911-5.832911 11.017721 0 4.536709-8.425316 11.665823-19.443038 16.202532-10.36962 4.536709-22.035443 11.665823-25.924051 16.202532-3.888608 5.18481-25.275949 18.146835-46.663291 29.164557-22.035443 11.665823-53.144304 29.812658-69.994936 41.478481-16.202532 11.017722-36.941772 23.979747-45.367089 29.164557-9.073418 4.536709-41.478481 27.220253-71.939241 49.903797-58.977215 44.718987-107.58481 103.048101-123.13924 148.41519-12.313924 38.237975-16.850633 40.182278-25.924051 10.36962z" fill="#409EFF" p-id="14280"></path></svg>