<?xml version="1.0" encoding="UTF-8"?>
<!DOCTYPE svg PUBLIC "-//W3C//DTD SVG 1.1//EN" "http://www.w3.org/Graphics/SVG/1.1/DTD/svg11.dtd">
<svg xmlns="http://www.w3.org/2000/svg" version="1.1" width="500px" height="500px" style="shape-rendering:geometricPrecision; text-rendering:geometricPrecision; image-rendering:optimizeQuality; fill-rule:evenodd; clip-rule:evenodd" xmlns:xlink="http://www.w3.org/1999/xlink">
<g><path style="opacity:1" fill="#fefefe" d="M -0.5,-0.5 C 166.167,-0.5 332.833,-0.5 499.5,-0.5C 499.5,166.167 499.5,332.833 499.5,499.5C 332.833,499.5 166.167,499.5 -0.5,499.5C -0.5,332.833 -0.5,166.167 -0.5,-0.5 Z"/></g>
<g><path style="opacity:1" fill="#0667ff" d="M 79.5,44.5 C 79.5207,49.2691 79.1873,54.4358 78.5,60C 79.1667,63 79.8333,66 80.5,69C 80.2692,78.4246 79.9359,88.4246 79.5,99C 81.0317,114.483 81.3651,129.316 80.5,143.5C 72.5,143.5 64.5,143.5 56.5,143.5C 52.0903,141.916 49.7569,138.75 49.5,134C 53.925,105.689 59.0917,77.5226 65,49.5C 65.4652,48.0692 66.2986,46.9025 67.5,46C 71.3628,44.6463 75.3628,44.1463 79.5,44.5 Z"/></g>
<g><path style="opacity:1" fill="#006dff" d="M 79.5,44.5 C 83.8333,44.5 88.1667,44.5 92.5,44.5C 92.728,51.6022 92.3947,58.7689 91.5,66C 92.1667,69.3333 92.8333,72.6667 93.5,76C 92.8333,76.3333 92.1667,76.6667 91.5,77C 92.2598,78.4411 92.9264,79.9411 93.5,81.5C 93.0792,102.38 93.0792,123.047 93.5,143.5C 89.1667,143.5 84.8333,143.5 80.5,143.5C 81.3651,129.316 81.0317,114.483 79.5,99C 79.9359,88.4246 80.2692,78.4246 80.5,69C 79.8333,66 79.1667,63 78.5,60C 79.1873,54.4358 79.5207,49.2691 79.5,44.5 Z"/></g>
<g><path style="opacity:1" fill="#0073ff" d="M 92.5,44.5 C 96.5,44.5 100.5,44.5 104.5,44.5C 105.831,58.1633 105.831,71.9966 104.5,86C 105.167,88.6667 105.833,91.3333 106.5,94C 106.482,104.82 106.149,115.82 105.5,127C 106.167,130.667 106.833,134.333 107.5,138C 104.972,139.316 104.972,140.483 107.5,141.5C 107.137,142.183 106.804,142.85 106.5,143.5C 102.167,143.5 97.8333,143.5 93.5,143.5C 93.0792,123.047 93.0792,102.38 93.5,81.5C 92.9264,79.9411 92.2598,78.4411 91.5,77C 92.1667,76.6667 92.8333,76.3333 93.5,76C 92.8333,72.6667 92.1667,69.3333 91.5,66C 92.3947,58.7689 92.728,51.6022 92.5,44.5 Z"/></g>
<g><path style="opacity:1" fill="#0079ff" d="M 104.5,44.5 C 108.833,44.5 113.167,44.5 117.5,44.5C 117.933,61.9503 117.933,79.7836 117.5,98C 118.27,100.607 118.937,103.273 119.5,106C 119.193,117.847 119.193,130.347 119.5,143.5C 115.167,143.5 110.833,143.5 106.5,143.5C 106.804,142.85 107.137,142.183 107.5,141.5C 104.972,140.483 104.972,139.316 107.5,138C 106.833,134.333 106.167,130.667 105.5,127C 106.149,115.82 106.482,104.82 106.5,94C 105.833,91.3333 105.167,88.6667 104.5,86C 105.831,71.9966 105.831,58.1633 104.5,44.5 Z"/></g>
<g><path style="opacity:1" fill="#007fff" d="M 117.5,44.5 C 122.167,44.5 126.833,44.5 131.5,44.5C 131.735,77.3111 132.401,110.311 133.5,143.5C 128.833,143.5 124.167,143.5 119.5,143.5C 119.193,130.347 119.193,117.847 119.5,106C 118.937,103.273 118.27,100.607 117.5,98C 117.933,79.7836 117.933,61.9503 117.5,44.5 Z"/></g>
<g><path style="opacity:1" fill="#0086ff" d="M 131.5,44.5 C 134.833,44.5 138.167,44.5 141.5,44.5C 142.032,55.9686 142.032,68.1352 141.5,81C 143.118,93.1277 143.452,104.294 142.5,114.5C 143.167,124.196 143.833,133.863 144.5,143.5C 140.833,143.5 137.167,143.5 133.5,143.5C 132.401,110.311 131.735,77.3111 131.5,44.5 Z"/></g>
<g><path style="opacity:1" fill="#048efe" d="M 141.5,44.5 C 149.167,44.5 156.833,44.5 164.5,44.5C 158.943,77.5106 153.276,110.511 147.5,143.5C 146.5,143.5 145.5,143.5 144.5,143.5C 143.833,133.863 143.167,124.196 142.5,114.5C 143.452,104.294 143.118,93.1277 141.5,81C 142.032,68.1352 142.032,55.9686 141.5,44.5 Z"/></g>
<g><path style="opacity:1" fill="#d3f9ef" d="M 168.5,44.5 C 171.833,44.5 175.167,44.5 178.5,44.5C 178.736,77.1571 179.403,110.157 180.5,143.5C 177.167,143.5 173.833,143.5 170.5,143.5C 170.261,141.533 170.594,139.699 171.5,138C 170.819,129.864 170.152,121.697 169.5,113.5C 169.738,105.551 170.071,97.384 170.5,89C 168.785,73.5608 168.118,58.7274 168.5,44.5 Z"/></g>
<g><path style="opacity:1" fill="#c6f6e7" d="M 178.5,44.5 C 181.833,44.5 185.167,44.5 188.5,44.5C 189.194,55.1537 189.194,65.3203 188.5,75C 189.167,83.6667 189.833,92.3333 190.5,101C 190.443,105.207 190.109,109.374 189.5,113.5C 190.142,123.55 190.809,133.55 191.5,143.5C 187.833,143.5 184.167,143.5 180.5,143.5C 179.403,110.157 178.736,77.1571 178.5,44.5 Z"/></g>
<g><path style="opacity:1" fill="#baf3df" d="M 188.5,44.5 C 191.833,44.5 195.167,44.5 198.5,44.5C 197.993,76.3744 198.66,109.374 200.5,143.5C 197.5,143.5 194.5,143.5 191.5,143.5C 190.809,133.55 190.142,123.55 189.5,113.5C 190.109,109.374 190.443,105.207 190.5,101C 189.833,92.3333 189.167,83.6667 188.5,75C 189.194,65.3203 189.194,55.1537 188.5,44.5 Z"/></g>
<g><path style="opacity:1" fill="#adf0d8" d="M 198.5,44.5 C 202.167,44.5 205.833,44.5 209.5,44.5C 209.781,49.3071 209.448,53.9738 208.5,58.5C 209.155,68.3636 209.822,78.1969 210.5,88C 209.934,105.744 209.934,124.244 210.5,143.5C 207.167,143.5 203.833,143.5 200.5,143.5C 198.66,109.374 197.993,76.3744 198.5,44.5 Z"/></g>
<g><path style="opacity:1" fill="#94ebc9" d="M 219.5,44.5 C 222.833,44.5 226.167,44.5 229.5,44.5C 229.869,57.0638 230.535,70.2304 231.5,84C 231.24,103.401 231.24,123.234 231.5,143.5C 227.833,143.5 224.167,143.5 220.5,143.5C 220.772,140.008 221.106,136.508 221.5,133C 221.045,106.254 220.045,79.921 218.5,54C 219.129,50.868 219.462,47.7014 219.5,44.5 Z"/></g>
<g><path style="opacity:1" fill="#87e8c1" d="M 229.5,44.5 C 234.833,44.5 240.167,44.5 245.5,44.5C 245.133,60.7835 245.8,77.9502 247.5,96C 246.964,107.243 246.631,118.243 246.5,129C 247.743,133.893 248.077,138.726 247.5,143.5C 251.5,143.5 255.5,143.5 259.5,143.5C 264.5,143.5 269.5,143.5 274.5,143.5C 278.5,143.5 282.5,143.5 286.5,143.5C 291.833,143.5 297.167,143.5 302.5,143.5C 306.833,143.5 311.167,143.5 315.5,143.5C 323.833,143.5 332.167,143.5 340.5,143.5C 347.5,143.5 354.5,143.5 361.5,143.5C 375.833,143.5 390.167,143.5 404.5,143.5C 412.833,143.5 421.167,143.5 429.5,143.5C 368.669,144.499 307.669,144.832 246.5,144.5C 241.695,143.513 236.695,143.179 231.5,143.5C 231.24,123.234 231.24,103.401 231.5,84C 230.535,70.2304 229.869,57.0638 229.5,44.5 Z"/></g>
<g><path style="opacity:1" fill="#75e4b6" d="M 245.5,44.5 C 249.5,44.5 253.5,44.5 257.5,44.5C 258.016,56.5365 258.683,69.0365 259.5,82C 259.056,101.787 259.056,122.287 259.5,143.5C 255.5,143.5 251.5,143.5 247.5,143.5C 248.077,138.726 247.743,133.893 246.5,129C 246.631,118.243 246.964,107.243 247.5,96C 245.8,77.9502 245.133,60.7835 245.5,44.5 Z"/></g>
<g><path style="opacity:1" fill="#68e1af" d="M 257.5,44.5 C 262.5,44.5 267.5,44.5 272.5,44.5C 273.446,67.3052 273.446,91.4719 272.5,117C 273.529,126.525 274.196,135.359 274.5,143.5C 269.5,143.5 264.5,143.5 259.5,143.5C 259.056,122.287 259.056,101.787 259.5,82C 258.683,69.0365 258.016,56.5365 257.5,44.5 Z"/></g>
<g><path style="opacity:1" fill="#5cdea7" d="M 272.5,44.5 C 276.5,44.5 280.5,44.5 284.5,44.5C 285.422,77.8517 286.089,110.852 286.5,143.5C 282.5,143.5 278.5,143.5 274.5,143.5C 274.196,135.359 273.529,126.525 272.5,117C 273.446,91.4719 273.446,67.3052 272.5,44.5 Z"/></g>
<g><path style="opacity:1" fill="#4fdb9f" d="M 284.5,44.5 C 289.5,44.5 294.5,44.5 299.5,44.5C 299.097,51.8794 299.763,59.7128 301.5,68C 300.911,83.7991 300.578,99.1324 300.5,114C 301.113,118.714 301.779,123.381 302.5,128C 301.579,132.966 301.579,138.133 302.5,143.5C 297.167,143.5 291.833,143.5 286.5,143.5C 286.089,110.852 285.422,77.8517 284.5,44.5 Z"/></g>
<g><path style="opacity:1" fill="#43d898" d="M 299.5,44.5 C 304.5,44.5 309.5,44.5 314.5,44.5C 315.018,66.199 315.018,88.3656 314.5,111C 315.167,113.333 315.833,115.667 316.5,118C 316.742,126.631 316.409,135.131 315.5,143.5C 311.167,143.5 306.833,143.5 302.5,143.5C 301.579,138.133 301.579,132.966 302.5,128C 301.779,123.381 301.113,118.714 300.5,114C 300.578,99.1324 300.911,83.7991 301.5,68C 299.763,59.7128 299.097,51.8794 299.5,44.5 Z"/></g>
<g><path style="opacity:1" fill="#31d58d" d="M 314.5,44.5 C 322.5,44.5 330.5,44.5 338.5,44.5C 338.611,53.3337 338.611,61.8337 338.5,70C 340.731,72.4698 340.731,74.8031 338.5,77C 339.047,81.7326 339.714,86.7326 340.5,92C 339.521,96.9589 339.188,101.792 339.5,106.5C 341.645,107.682 341.645,109.182 339.5,111C 339.531,115.969 339.531,120.969 339.5,126C 340.167,126.333 340.833,126.667 341.5,127C 341.589,132.881 341.256,138.381 340.5,143.5C 332.167,143.5 323.833,143.5 315.5,143.5C 316.409,135.131 316.742,126.631 316.5,118C 315.833,115.667 315.167,113.333 314.5,111C 315.018,88.3656 315.018,66.199 314.5,44.5 Z"/></g>
<g><path style="opacity:1" fill="#24d285" d="M 338.5,44.5 C 345.5,44.5 352.5,44.5 359.5,44.5C 359.815,55.6575 359.815,66.1575 359.5,76C 360.167,77.6667 360.833,79.3333 361.5,81C 361.132,102.885 361.132,123.718 361.5,143.5C 354.5,143.5 347.5,143.5 340.5,143.5C 341.256,138.381 341.589,132.881 341.5,127C 340.833,126.667 340.167,126.333 339.5,126C 339.531,120.969 339.531,115.969 339.5,111C 341.645,109.182 341.645,107.682 339.5,106.5C 339.188,101.792 339.521,96.9589 340.5,92C 339.714,86.7326 339.047,81.7326 338.5,77C 340.731,74.8031 340.731,72.4698 338.5,70C 338.611,61.8337 338.611,53.3337 338.5,44.5 Z"/></g>
<g><path style="opacity:1" fill="#12cd7a" d="M 359.5,44.5 C 373.833,44.5 388.167,44.5 402.5,44.5C 402.708,63.3531 402.708,82.5198 402.5,102C 403.167,102.333 403.833,102.667 404.5,103C 403.579,116.254 403.579,129.754 404.5,143.5C 390.167,143.5 375.833,143.5 361.5,143.5C 361.132,123.718 361.132,102.885 361.5,81C 360.833,79.3333 360.167,77.6667 359.5,76C 359.815,66.1575 359.815,55.6575 359.5,44.5 Z"/></g>
<g><path style="opacity:1" fill="#08cb73" d="M 402.5,44.5 C 416.171,44.3334 429.837,44.5001 443.5,45C 449.025,47.9188 450.858,52.4188 449,58.5C 444.277,85.8952 439.277,113.228 434,140.5C 432.871,142.141 431.371,143.141 429.5,143.5C 421.167,143.5 412.833,143.5 404.5,143.5C 403.579,129.754 403.579,116.254 404.5,103C 403.833,102.667 403.167,102.333 402.5,102C 402.708,82.5198 402.708,63.3531 402.5,44.5 Z"/></g>
<g><path style="opacity:1" fill="#e1fbf9" d="M 164.5,44.5 C 165.833,44.5 167.167,44.5 168.5,44.5C 168.118,58.7274 168.785,73.5608 170.5,89C 170.071,97.384 169.738,105.551 169.5,113.5C 170.152,121.697 170.819,129.864 171.5,138C 170.594,139.699 170.261,141.533 170.5,143.5C 162.833,143.5 155.167,143.5 147.5,143.5C 153.276,110.511 158.943,77.5106 164.5,44.5 Z"/></g>
<g><path style="opacity:1" fill="#a1edd0" d="M 209.5,44.5 C 212.833,44.5 216.167,44.5 219.5,44.5C 219.462,47.7014 219.129,50.868 218.5,54C 220.045,79.921 221.045,106.254 221.5,133C 221.106,136.508 220.772,140.008 220.5,143.5C 217.167,143.5 213.833,143.5 210.5,143.5C 209.934,124.244 209.934,105.744 210.5,88C 209.822,78.1969 209.155,68.3636 208.5,58.5C 209.448,53.9738 209.781,49.3071 209.5,44.5 Z"/></g>
<g><path style="opacity:1" fill="#75bef9" d="M 56.5,143.5 C 64.5,143.5 72.5,143.5 80.5,143.5C 84.8333,143.5 89.1667,143.5 93.5,143.5C 97.8333,143.5 102.167,143.5 106.5,143.5C 110.833,143.5 115.167,143.5 119.5,143.5C 124.167,143.5 128.833,143.5 133.5,143.5C 137.167,143.5 140.833,143.5 144.5,143.5C 145.5,143.5 146.5,143.5 147.5,143.5C 155.167,143.5 162.833,143.5 170.5,143.5C 173.833,143.5 177.167,143.5 180.5,143.5C 184.167,143.5 187.833,143.5 191.5,143.5C 194.5,143.5 197.5,143.5 200.5,143.5C 203.833,143.5 207.167,143.5 210.5,143.5C 213.833,143.5 217.167,143.5 220.5,143.5C 224.167,143.5 227.833,143.5 231.5,143.5C 236.695,143.179 241.695,143.513 246.5,144.5C 212.944,143.851 179.611,144.518 146.5,146.5C 116.681,144.836 86.6806,143.836 56.5,143.5 Z"/></g>
<g><path style="opacity:1" fill="#0392ff" d="M 246.5,144.5 C 245.247,153.371 243.58,162.038 241.5,170.5C 241.607,168.621 241.107,168.288 240,169.5C 236.634,168.626 233.3,167.626 230,166.5C 228.16,167.833 227.66,167.666 228.5,166C 210.234,162.705 192.234,158.539 174.5,153.5C 173.325,154.855 172.325,154.688 171.5,153C 162.74,151.982 154.406,150.482 146.5,148.5C 146.5,147.833 146.5,147.167 146.5,146.5C 179.611,144.518 212.944,143.851 246.5,144.5 Z"/></g>
<g><path style="opacity:1" fill="#058cff" d="M 146.5,148.5 C 154.406,150.482 162.74,151.982 171.5,153C 172.325,154.688 173.325,154.855 174.5,153.5C 192.234,158.539 210.234,162.705 228.5,166C 227.66,167.666 228.16,167.833 230,166.5C 233.3,167.626 236.634,168.626 240,169.5C 241.107,168.288 241.607,168.621 241.5,170.5C 241.15,176.951 240.15,183.284 238.5,189.5C 234.338,188.024 230.172,187.691 226,188.5C 224.829,186.384 223.329,185.718 221.5,186.5C 214.265,183.808 206.765,181.808 199,180.5C 198.667,180.833 198.333,181.167 198,181.5C 195.57,179.392 192.904,178.725 190,179.5C 186.865,177.234 183.532,176.567 180,177.5C 177.934,175.36 175.6,174.693 173,175.5C 168.374,173.729 163.874,172.396 159.5,171.5C 158.833,171.833 158.167,172.167 157.5,172.5C 152.914,170.734 148.414,169.067 144,167.5C 143.768,168.737 143.268,169.737 142.5,170.5C 143.525,163.075 144.859,155.742 146.5,148.5 Z"/></g>
<g><path style="opacity:1" fill="#0286ff" d="M 238.5,189.5 C 237.897,196.765 236.563,203.765 234.5,210.5C 234.631,209.761 234.464,209.094 234,208.5C 231.667,208.5 229.333,208.5 227,208.5C 220.795,206.732 214.629,205.066 208.5,203.5C 207.558,203.608 206.725,203.941 206,204.5C 205.395,202.519 204.395,202.185 203,203.5C 202.395,201.519 201.395,201.185 200,202.5C 197.467,201.128 194.8,200.128 192,199.5C 191.667,200.167 191.333,200.833 191,201.5C 190.223,199.785 188.89,198.785 187,198.5C 170.694,194.634 154.86,191.301 139.5,188.5C 140.716,182.539 141.716,176.539 142.5,170.5C 143.268,169.737 143.768,168.737 144,167.5C 148.414,169.067 152.914,170.734 157.5,172.5C 158.167,172.167 158.833,171.833 159.5,171.5C 163.874,172.396 168.374,173.729 173,175.5C 175.6,174.693 177.934,175.36 180,177.5C 183.532,176.567 186.865,177.234 190,179.5C 192.904,178.725 195.57,179.392 198,181.5C 198.333,181.167 198.667,180.833 199,180.5C 206.765,181.808 214.265,183.808 221.5,186.5C 223.329,185.718 224.829,186.384 226,188.5C 230.172,187.691 234.338,188.024 238.5,189.5 Z"/></g>
<g><path style="opacity:1" fill="#0280ff" d="M 139.5,188.5 C 154.86,191.301 170.694,194.634 187,198.5C 188.89,198.785 190.223,199.785 191,201.5C 191.333,200.833 191.667,200.167 192,199.5C 194.8,200.128 197.467,201.128 200,202.5C 201.395,201.185 202.395,201.519 203,203.5C 204.395,202.185 205.395,202.519 206,204.5C 206.725,203.941 207.558,203.608 208.5,203.5C 214.629,205.066 220.795,206.732 227,208.5C 229.333,208.5 231.667,208.5 234,208.5C 234.464,209.094 234.631,209.761 234.5,210.5C 233.461,220.076 231.794,229.41 229.5,238.5C 227.32,236.331 224.82,235.664 222,236.5C 216.827,233.909 211.493,232.909 206,233.5C 201.301,231.531 196.801,229.865 192.5,228.5C 191.914,228.709 191.414,229.043 191,229.5C 187.59,226.973 184.256,226.307 181,227.5C 166.247,222.479 150.747,218.812 134.5,216.5C 135.951,207.125 137.618,197.792 139.5,188.5 Z"/></g>
<g><path style="opacity:1" fill="#0279ff" d="M 134.5,216.5 C 150.747,218.812 166.247,222.479 181,227.5C 184.256,226.307 187.59,226.973 191,229.5C 191.414,229.043 191.914,228.709 192.5,228.5C 196.801,229.865 201.301,231.531 206,233.5C 211.493,232.909 216.827,233.909 222,236.5C 224.82,235.664 227.32,236.331 229.5,238.5C 228.43,246.675 227.097,254.675 225.5,262.5C 216.321,260.836 207.154,258.836 198,256.5C 196.297,257.7 194.797,257.367 193.5,255.5C 192.914,255.709 192.414,256.043 192,256.5C 183.211,253.304 174.545,250.637 166,248.5C 165.05,249.022 164.216,249.689 163.5,250.5C 162.304,250.154 162.304,249.654 163.5,249C 155.37,247.45 147.537,245.283 140,242.5C 138.256,243.036 136.423,243.37 134.5,243.5C 133.304,243.154 133.304,242.654 134.5,242C 133.207,241.51 131.873,241.343 130.5,241.5C 131.648,233.133 132.981,224.8 134.5,216.5 Z"/></g>
<g><path style="opacity:1" fill="#0373ff" d="M 130.5,241.5 C 131.873,241.343 133.207,241.51 134.5,242C 133.304,242.654 133.304,243.154 134.5,243.5C 136.423,243.37 138.256,243.036 140,242.5C 147.537,245.283 155.37,247.45 163.5,249C 162.304,249.654 162.304,250.154 163.5,250.5C 164.216,249.689 165.05,249.022 166,248.5C 174.545,250.637 183.211,253.304 192,256.5C 192.414,256.043 192.914,255.709 193.5,255.5C 194.797,257.367 196.297,257.7 198,256.5C 207.154,258.836 216.321,260.836 225.5,262.5C 223.955,271.648 222.288,280.648 220.5,289.5C 220.213,287.879 219.213,286.879 217.5,286.5C 216.284,287.002 215.117,287.335 214,287.5C 213.147,285.875 212.147,285.542 211,286.5C 210.147,284.875 209.147,284.542 208,285.5C 206.333,284.833 204.667,284.167 203,283.5C 201.732,283.616 200.398,283.949 199,284.5C 198.333,283.167 197.333,282.167 196,281.5C 194.249,282.174 192.583,282.507 191,282.5C 188.055,280.43 185.055,279.097 182,278.5C 178.539,278.844 175.039,278.178 171.5,276.5C 170.325,277.855 169.325,277.688 168.5,276C 163.288,275.04 158.121,273.874 153,272.5C 152.228,272.645 151.561,272.978 151,273.5C 147.937,271.675 144.604,270.341 141,269.5C 140,269.833 139,270.167 138,270.5C 135.766,268.246 133.266,267.58 130.5,268.5C 128.944,267.453 127.277,266.786 125.5,266.5C 126.86,257.98 128.527,249.646 130.5,241.5 Z"/></g>
<g><path style="opacity:1" fill="#036dff" d="M 125.5,266.5 C 127.277,266.786 128.944,267.453 130.5,268.5C 133.266,267.58 135.766,268.246 138,270.5C 139,270.167 140,269.833 141,269.5C 144.604,270.341 147.937,271.675 151,273.5C 151.561,272.978 152.228,272.645 153,272.5C 158.121,273.874 163.288,275.04 168.5,276C 169.325,277.688 170.325,277.855 171.5,276.5C 175.039,278.178 178.539,278.844 182,278.5C 185.055,279.097 188.055,280.43 191,282.5C 192.583,282.507 194.249,282.174 196,281.5C 197.333,282.167 198.333,283.167 199,284.5C 200.398,283.949 201.732,283.616 203,283.5C 204.667,284.167 206.333,284.833 208,285.5C 209.147,284.542 210.147,284.875 211,286.5C 212.147,285.542 213.147,285.875 214,287.5C 215.117,287.335 216.284,287.002 217.5,286.5C 219.213,286.879 220.213,287.879 220.5,289.5C 219.795,297.732 218.461,305.732 216.5,313.5C 209.445,312.338 202.278,310.671 195,308.5C 194.667,308.833 194.333,309.167 194,309.5C 190.387,308.043 186.72,306.709 183,305.5C 182,305.833 181,306.167 180,306.5C 179.667,305.833 179.333,305.167 179,304.5C 178,304.833 177,305.167 176,305.5C 173.566,303.977 170.899,302.977 168,302.5C 165.401,302.367 162.734,302.367 160,302.5C 156.696,299.713 153.029,298.713 149,299.5C 148.009,298.061 146.676,297.061 145,296.5C 142.58,297.488 140.247,297.155 138,295.5C 136.657,296.214 135.324,295.88 134,294.5C 132.657,295.214 131.324,294.88 130,293.5C 129.439,294.022 128.772,294.355 128,294.5C 126.079,292.997 123.912,292.331 121.5,292.5C 122.194,283.728 123.527,275.061 125.5,266.5 Z"/></g>
<g><path style="opacity:1" fill="#0267ff" d="M 121.5,292.5 C 123.912,292.331 126.079,292.997 128,294.5C 128.772,294.355 129.439,294.022 130,293.5C 131.324,294.88 132.657,295.214 134,294.5C 135.324,295.88 136.657,296.214 138,295.5C 140.247,297.155 142.58,297.488 145,296.5C 146.676,297.061 148.009,298.061 149,299.5C 153.029,298.713 156.696,299.713 160,302.5C 162.734,302.367 165.401,302.367 168,302.5C 170.899,302.977 173.566,303.977 176,305.5C 177,305.167 178,304.833 179,304.5C 179.333,305.167 179.667,305.833 180,306.5C 181,306.167 182,305.833 183,305.5C 186.72,306.709 190.387,308.043 194,309.5C 194.333,309.167 194.667,308.833 195,308.5C 202.278,310.671 209.445,312.338 216.5,313.5C 214.259,327.184 211.926,340.851 209.5,354.5C 194.167,354.5 178.833,354.5 163.5,354.5C 153.167,354.5 142.833,354.5 132.5,354.5C 124.757,355.13 117.424,354.463 110.5,352.5C 113.798,332.411 117.464,312.411 121.5,292.5 Z"/></g>
<g><path style="opacity:1" fill="#14acff" d="M 110.5,352.5 C 117.424,354.463 124.757,355.13 132.5,354.5C 137.982,360.761 143.482,367.095 149,373.5C 149.49,374.793 149.657,376.127 149.5,377.5C 151.903,377.393 153.736,378.393 155,380.5C 155.617,381.449 155.451,382.282 154.5,383C 156.985,385.814 159.819,388.314 163,390.5C 168.464,397.902 174.297,405.069 180.5,412C 180.167,412.333 179.833,412.667 179.5,413C 185.432,418.446 190.765,424.28 195.5,430.5C 195.09,437.296 193.923,443.963 192,450.5C 190.786,452.049 189.286,453.215 187.5,454C 158.33,454.83 129.33,454.664 100.5,453.5C 118.167,453.5 135.833,453.5 153.5,453.5C 163.855,453.832 174.188,453.499 184.5,452.5C 174.39,440.574 164.557,428.574 155,416.5C 154.107,417.711 153.274,417.711 152.5,416.5C 153.326,415.549 153.492,414.549 153,413.5C 139.991,398.033 126.657,381.699 113,364.5C 111.612,364.786 110.112,364.452 108.5,363.5C 108.646,359.613 109.313,355.946 110.5,352.5 Z"/></g>
<g><path style="opacity:1" fill="#02b1ff" d="M 132.5,354.5 C 142.833,354.5 153.167,354.5 163.5,354.5C 171.959,365.13 180.625,375.63 189.5,386C 189.167,386.333 188.833,386.667 188.5,387C 193.403,390.822 197.403,395.988 200.5,402.5C 199.463,412.064 197.796,421.397 195.5,430.5C 190.765,424.28 185.432,418.446 179.5,413C 179.833,412.667 180.167,412.333 180.5,412C 174.297,405.069 168.464,397.902 163,390.5C 159.819,388.314 156.985,385.814 154.5,383C 155.451,382.282 155.617,381.449 155,380.5C 153.736,378.393 151.903,377.393 149.5,377.5C 149.657,376.127 149.49,374.793 149,373.5C 143.482,367.095 137.982,360.761 132.5,354.5 Z"/></g>
<g><path style="opacity:1" fill="#07baff" d="M 163.5,354.5 C 178.833,354.5 194.167,354.5 209.5,354.5C 206.988,370.72 203.988,386.72 200.5,402.5C 197.403,395.988 193.403,390.822 188.5,387C 188.833,386.667 189.167,386.333 189.5,386C 180.625,375.63 171.959,365.13 163.5,354.5 Z"/></g>
<g><path style="opacity:1" fill="#02a5ff" d="M 108.5,363.5 C 110.112,364.452 111.612,364.786 113,364.5C 126.657,381.699 139.991,398.033 153,413.5C 153.492,414.549 153.326,415.549 152.5,416.5C 153.274,417.711 154.107,417.711 155,416.5C 164.557,428.574 174.39,440.574 184.5,452.5C 174.188,453.499 163.855,453.832 153.5,453.5C 143.305,441.548 132.972,428.881 122.5,415.5C 121.624,414.749 120.624,414.249 119.5,414C 119.833,413.667 120.167,413.333 120.5,413C 117.81,409.905 114.31,406.072 110,401.5C 109.667,400.5 109.333,399.5 109,398.5C 108.667,398.833 108.333,399.167 108,399.5C 107.667,398.167 107.333,396.833 107,395.5C 106.667,396.167 106.333,396.833 106,397.5C 105.243,395.685 104.41,394.019 103.5,392.5C 104.703,382.741 106.37,373.074 108.5,363.5 Z"/></g>
<g><path style="opacity:1" fill="#07a1ff" d="M 103.5,392.5 C 104.41,394.019 105.243,395.685 106,397.5C 106.333,396.833 106.667,396.167 107,395.5C 107.333,396.833 107.667,398.167 108,399.5C 108.333,399.167 108.667,398.833 109,398.5C 109.333,399.5 109.667,400.5 110,401.5C 114.31,406.072 117.81,409.905 120.5,413C 120.167,413.333 119.833,413.667 119.5,414C 120.624,414.249 121.624,414.749 122.5,415.5C 132.972,428.881 143.305,441.548 153.5,453.5C 135.833,453.5 118.167,453.5 100.5,453.5C 96.1198,452.115 94.1198,449.115 94.5,444.5C 97.0894,426.959 100.089,409.625 103.5,392.5 Z"/></g>
</svg>
